<?xml version="1.0" encoding="UTF-8"?>
<svg id="Layer_1" data-name="Layer 1" xmlns="http://www.w3.org/2000/svg" viewBox="0 0 200.52 200.52">
  <defs>
    <style>
      .cls-1 {
        fill: #e9d8a6;
      }

      .cls-2 {
        fill: #0e111f;
      }

      .cls-3 {
        fill: #da3626;
      }
    </style>
  </defs>
  <path class="cls-1" d="M100.26,0C44.89,0,0,44.89,0,100.26s44.89,100.26,100.26,100.26,100.26-44.89,100.26-100.26S155.63,0,100.26,0Z"/>
  <g>
    <path class="cls-2" d="M89.14,128.97l-15.75-22.07c-2.33.32-4.47.47-6.42.47h-18.86v21.6h-4.81V62.95h23.67c8.3,0,14.81,1.96,19.53,5.89,4.71,3.93,7.07,9.38,7.07,16.36,0,5.22-1.33,9.6-4.01,13.16-2.67,3.55-6.49,6.05-11.46,7.5l16.51,23.11h-5.47ZM66.97,103.13c7.04,0,12.42-1.56,16.13-4.67,3.71-3.11,5.56-7.53,5.56-13.25s-1.85-10.14-5.56-13.25c-3.71-3.11-9.09-4.67-16.13-4.67h-18.86v35.84h18.86Z"/>
    <path class="cls-2" d="M134.08,123.36c2.74-1.16,5.02-2.88,6.84-5.14l2.73,3.11c-2.14,2.64-4.81,4.64-8.02,5.99-3.21,1.35-6.73,2.03-10.56,2.03-4.9,0-9.29-1.07-13.16-3.21-3.87-2.14-6.88-5.09-9.06-8.87-2.17-3.77-3.25-8.08-3.25-12.92s1.02-9.15,3.06-12.92c2.04-3.77,4.89-6.73,8.54-8.86,3.65-2.14,7.76-3.21,12.36-3.21,4.28,0,8.12.99,11.56,2.97,3.42,1.98,6.16,4.72,8.2,8.21,2.04,3.49,3.16,7.4,3.35,11.74l-41.59,8.11c1.19,4.53,3.58,8.11,7.16,10.75,3.59,2.64,7.89,3.96,12.92,3.96,3.21,0,6.18-.58,8.91-1.75ZM113.56,86.1c-2.96,1.73-5.25,4.15-6.88,7.27-1.64,3.11-2.45,6.65-2.45,10.61,0,.69.06,1.67.19,2.92l37.54-7.36c-.44-2.95-1.48-5.66-3.11-8.11-1.63-2.45-3.77-4.38-6.41-5.8-2.64-1.42-5.6-2.12-8.87-2.12-3.71,0-7.04.87-10,2.59Z"/>
    <g>
      <polygon class="cls-3" points="154.19 62.7 161.55 62.7 159.66 139.17 156.08 139.17 154.19 62.7"/>
      <path class="cls-3" d="M155.15,161.86c-.75-.75-1.13-1.67-1.13-2.74s.38-1.98,1.13-2.74c.75-.75,1.67-1.13,2.73-1.13,1.13,0,2.08.38,2.83,1.13.76.76,1.13,1.67,1.13,2.74s-.37,1.98-1.13,2.74c-.75.75-1.69,1.13-2.83,1.13-1.07,0-1.98-.38-2.73-1.13Z"/>
    </g>
  </g>
</svg>